<?xml version="1.0" standalone="no"?><!DOCTYPE svg PUBLIC "-//W3C//DTD SVG 1.1//EN" "http://www.w3.org/Graphics/SVG/1.1/DTD/svg11.dtd"><svg t="1604714567489" class="icon" viewBox="0 0 1024 1024" version="1.1" xmlns="http://www.w3.org/2000/svg" p-id="4336" xmlns:xlink="http://www.w3.org/1999/xlink" width="200" height="200"><defs><style type="text/css"></style></defs><path d="M115.31 489.12l-35.765 35.604c-10.604 10.542-16.468 24.596-16.468 39.509 0 14.956 5.83 29 16.437 39.567l337.594 335.976c10.591 10.584 24.676 16.404 39.69 16.404 15.01 0 29.13-5.82 39.72-16.375l24.97-24.856-406.179-425.83zM956.816 428.157V134.195c0-37.304-30.499-67.675-67.971-67.675l-289.06 0.03-12.394-0.03c-18.919 0-47.566 0-66.257 18.607L143.599 460.959l406.176 425.829L938.107 500.22c18.935-18.82 18.815-45.883 18.709-72.064z m-227.211-60.074c-41.842 0-75.744-33.731-75.744-75.393 0-41.633 33.902-75.38 75.744-75.38 41.838 0 75.74 33.746 75.74 75.38 0 41.663-33.902 75.393-75.74 75.393z" p-id="4337"></path></svg>